# xmcd CD database file
# Copyright (C) 1995-1998 Ti Kan
#
# Track frame offsets:
#	150
#	14002
#	25860
#	43824
#	57027
#	72352
#	85174
#	104124
#
# Disc length: 1608 seconds
#
# Revision: 1
# Processed by: cddbd v1.4b41PL1 Copyright (c) Steve Scherf et al.
# Submitted via: CDex 1.30
#
DISCID=6b064608
DTITLE=Lance Pettis - Rollin' and Rollin'
DYEAR=2001
DGENRE=Blues
TTITLE0=Jet City Blues
TTITLE1=Blues This Mornin'
TTITLE2=Education Blues
TTITLE3=Went To The River
TTITLE4=Gambling Blues
TTITLE5=Wish I Had A Home
TTITLE6=Rollin' and Rollin'
TTITLE7=She Don't Treat Me Right
EXTD=YEAR: 2001  ID3G:   0
EXTT0=
EXTT1=
EXTT2=
EXTT3=
EXTT4=
EXTT5=
EXTT6=
EXTT7=
PLAYORDER=
